<svg xmlns="http://www.w3.org/2000/svg" enable-background="new 0 0 25 25" viewBox="0 0 25 25" id="python">
  <path fill="#583689" d="M5.502,19c-0.414,0-0.75-0.336-0.75-0.75v-2.5c0-3.061,2.021-5,5.149-5h5.49c1.179,0,1.349-0.608,1.359-1.203V7c0-0.414,0.336-0.75,0.75-0.75S18.25,6.586,18.25,7v2.561c-0.03,1.689-1.099,2.689-2.859,2.689h-5.49c-2.285,0-3.649,1.286-3.649,3.44v2.56C6.252,18.664,5.916,19,5.502,19z"></path>
  <path fill="#583689" d="M17.5,10.311c-0.414,0-0.75-0.336-0.75-0.75V4.33c0-1.141-0.663-1.933-1.774-2.121c-1.737-0.282-3.645-0.28-5.229,0.01C8.81,2.379,8.223,2.616,7.944,2.944C7.718,3.211,7.622,3.625,7.622,4.33v2.42h4.129c0.414,0,0.75,0.336,0.75,0.75s-0.336,0.75-0.75,0.75H6.872c-0.414,0-0.75-0.336-0.75-0.75V4.33c0-0.725,0.077-1.646,0.678-2.355c0.522-0.616,1.375-1.009,2.685-1.233c1.74-0.316,3.833-0.322,5.737-0.012c1.842,0.312,3.029,1.725,3.029,3.601v5.23C18.25,9.975,17.915,10.311,17.5,10.311z"></path>
  <path fill="#583689" d="M5.502 19h-1.2c-2.325 0-3.053-1.908-3.399-3.344-.535-2.256-.535-3.696 0-5.931C1.38 7.751 2.695 6.75 4.812 6.75h2.06c.414 0 .75.336.75.75s-.336.75-.75.75h-2.06c-1.446 0-2.133.512-2.451 1.826-.483 2.019-.483 3.192.001 5.231C2.8 17.127 3.455 17.5 4.302 17.5h.45v-1.75c0-.414.336-.78.75-.78s.75.307.75.721v2.56C6.252 18.664 5.916 19 5.502 19zM10.501 6.25c-.965 0-1.75-.784-1.75-1.748.009-.97.794-1.752 1.75-1.752.965 0 1.75.786 1.75 1.752C12.251 5.466 11.466 6.25 10.501 6.25zM10.501 4.25c-.139 0-.249.114-.25.259 0 .26.5.267.5-.007C10.751 4.368 10.635 4.25 10.501 4.25z"></path>
  <g>
    <path fill="#DE002A" d="M7.5,18.75c-0.414,0-0.75-0.336-0.75-0.75v-2.56c0.03-1.689,1.099-2.69,2.859-2.69h5.49c2.285,0,3.649-1.286,3.649-3.44V6.75c0-0.414,0.336-0.75,0.75-0.75s0.75,0.336,0.75,0.75v2.5c0,3.061-2.021,5-5.149,5h-5.49c-1.179,0-1.349,0.608-1.359,1.204V18C8.25,18.414,7.914,18.75,7.5,18.75z"></path>
  </g>
  <g>
    <path fill="#DE002A" d="M12.669,24.5c-0.966,0-1.952-0.076-2.891-0.229C7.937,23.959,6.75,22.546,6.75,20.67V15.44c0-0.414,0.336-0.75,0.75-0.75s0.75,0.336,0.75,0.75v5.229c0,1.141,0.663,1.933,1.774,2.121c1.737,0.282,3.645,0.28,5.229-0.01c0.937-0.16,1.524-0.397,1.802-0.726c0.226-0.267,0.322-0.681,0.322-1.386v-2.42h-4.129c-0.414,0-0.75-0.336-0.75-0.75s0.336-0.75,0.75-0.75h4.879c0.414,0,0.75,0.336,0.75,0.75v3.17c0,0.725-0.077,1.646-0.678,2.355c-0.522,0.616-1.375,1.009-2.685,1.233C14.634,24.419,13.662,24.5,12.669,24.5z"></path>
    <path fill="#DE002A" d="M20.188 18.25h-2.06c-.414 0-.75-.336-.75-.75s.336-.75.75-.75h2.06c1.446 0 2.133-.512 2.451-1.826.483-2.019.483-3.192-.001-5.231C22.2 7.873 21.545 7.5 20.698 7.5h-.45v1.75c0 .414-.336.78-.75.78s-.75-.307-.75-.721V6.75c0-.414.336-.75.75-.75h1.2c2.325 0 3.053 1.908 3.399 3.344.535 2.256.535 3.696 0 5.931C23.62 17.249 22.305 18.25 20.188 18.25zM14.499 22.25c-.965 0-1.75-.786-1.75-1.752 0-.964.785-1.748 1.75-1.748s1.75.784 1.75 1.748C16.239 21.468 15.454 22.25 14.499 22.25zM14.499 20.25c-.138 0-.25.111-.25.248 0 .272.497.277.5-.007C14.749 20.361 14.636 20.25 14.499 20.25z"></path>
  </g>
</svg>
